<?xml version="1.0" encoding="utf-8"?>
<!-- Generator: Adobe Illustrator 21.0.0, SVG Export Plug-In . SVG Version: 6.00 Build 0)  -->
<svg version="1.1" id="Layer_1" xmlns="http://www.w3.org/2000/svg" xmlns:xlink="http://www.w3.org/1999/xlink" x="0px" y="0px"
	 viewBox="0 0 400 400" style="enable-background:new 0 0 400 400;" xml:space="preserve">
<style type="text/css">
	.st0{fill:#FFFFFF;}
</style>
<g>
	<path class="st0" d="M211.4,160.4c-6.8-3.7-14.9-5.3-22.9-4.9c-5.8,0.3-11.6,1.8-16.8,4.3c-2.1,1-4.1,2.1-6,3.4V90
		c-1.6,0.4-3.3,0.8-4.9,1.2c-6.1,1.6-12.1,3.5-17.9,5.8v49.9c0,12.3,2.3,24.1,6.6,34.9c3.9,9.9,9.4,19,16.3,27c0,0,0,0,0,0l0.6-0.4
		c-1.3-9.3,1.1-19.1,7.2-26.7c3.9-5.1,9.1-9,15.1-11.5v47.7v10.4v0.1c0.8,0.5,1.6,0.9,2.4,1.3c2.7,1.5,5.5,3,8.4,4.3
		c0.2,0.1,0.5,0.2,0.7,0.3c0.2-0.1,0.5-0.2,0.7-0.3c0.2-0.1,0.5-0.2,0.7-0.3c3.5-1.6,6.8-3.4,10-5.3v-10.2v-50.8
		c3.6,0.5,7,1.5,10.5,2.7l0.4-0.5C219.3,165.7,215.6,162.7,211.4,160.4"/>
	<path class="st0" d="M239.2,91.2c-1.6-0.4-3.3-0.8-4.9-1.2v35.6c-7.2-2.9-15.1-4-22.9-3.5V86.7c-3.8-0.3-7.6-0.4-11.4-0.4
		c-3.8,0-7.7,0.1-11.4,0.4v42.6c-4.6,2.9-8.7,6.7-11.9,11.3l0.4,0.6c3.7-1.7,7.6-3,11.4-3.9c7.7-1.7,15.5-1.7,22.8,0.1
		c8.8,2.1,16.8,6.7,22.9,13.8v53.3v3.1l0.7,0.4c13.8-16.6,22.2-37.9,22.2-61.1v-4.1V96.9C251.3,94.7,245.3,92.7,239.2,91.2"/>
	<rect x="243.3" y="282.3" class="st0" width="5.9" height="27.3"/>
	<path class="st0" d="M152.1,312.9c1.2,0.6,2.7,0.9,4.4,0.9h9.6v-31.5h-5.9v21.5v0c0,2.2,0,3,2.2,3.9v0.2h-2.2v0H157
		c-0.8,0-1.5-0.2-2-0.7c-0.5-0.5-0.7-1.1-0.7-2v-12.8h-6v13.8c0,1.6,0.3,3,0.9,4.1C150,311.4,150.9,312.3,152.1,312.9"/>
	<path class="st0" d="M203.1,307.1c2.2,4,6.9,6.3,11.3,6.3c4.5,0,7.6-1.5,9.8-3.8h9.5h5.9v-27.3h-5.9v17.3c0,2.2,0,3,2.3,3.9v0.2
		h-8.7c0.4-1.4,0.5-2.8,0.5-4.2c0-3-1.3-6.2-3.4-8.6c-2.5-2.9-6.1-4.5-10.1-4.5c-4.5,0-7.7,1.6-9.8,3.5v5c-1.7,1.6-2.8,4-2.8,6.9v0
		c0,0.6,0.1,1.3,0.2,1.8h-0.8h-5h-0.4c-0.7,0-1.1-0.1-1.5-0.4c-0.3-0.3-0.6-0.8-0.7-1.4c-0.1-0.7-0.2-1.6-0.2-2.9v-16.6h-6v19.1
		c0,0.7-0.2,1.3-0.6,1.6c-0.4,0.4-0.9,0.6-1.7,0.6h-1.6l-3.9-16.5h-5.9l3,12.9c0.5,1.9,1,2.6,3.1,3.5v0.2h-11.1l1.2,5.9h15.4
		c2.6,0,4.6-0.7,5.9-2.1c0.2-0.2,0.4-0.5,0.6-0.7c0.1,0.2,0.2,0.5,0.3,0.7c0.4,0.7,1,1.3,1.5,1.7c0.6,0.4,1.3,0.5,2,0.5h0.4h1h5.5
		L203.1,307.1z M214.3,291.8c5.4,0,7.9,4.5,8,7.6c0.1,2.8-0.8,7-5.4,8.1c1.5-1.7,2.2-4,2.2-6.4c0-1.9-0.7-3.9-1.8-5.4
		c-1.6-2-4-3.2-6.8-3.2c-0.1,0-0.3,0-0.4,0C211.1,292.2,212.5,291.8,214.3,291.8 M210.3,298.2c0.3,0,3-0.1,3.2,2.9
		c0.2,3.5-2.1,3.7-2.8,3.7c-0.5,0-3.2,0-3.4-2.8C207.1,298.7,208.9,298.3,210.3,298.2"/>
	<rect x="198.7" y="248.2" class="st0" width="5.9" height="27.3"/>
	<path class="st0" d="M169.5,269.9h-2.3v-0.2c2.2-0.9,2.2-1.7,2.2-3.9l0,0v-17.7h-5.9v27.3h12.8l1.1-5.5L169.5,269.9L169.5,269.9z"
		/>
	<path class="st0" d="M213.5,269.9h-2.2v-0.2c1.9-0.7,2.2-1.5,2.2-3v-18.6h-5.9v27.3h12.8l1.1-5.5L213.5,269.9L213.5,269.9z"/>
	<path class="st0" d="M249.2,269.9L249.2,269.9l-2.2,0v-0.2c1.7-0.7,2.1-1.3,2.2-2.5v-19h-5.9v27.3h12.8l1.1-5.5H249.2z"/>
	<path class="st0" d="M189.8,275.4h5.9v-27.3h-5.9v11.1H186l0,0h-2.8v-0.2c2-0.8,2.2-1.5,2.2-3.1v-7.8h-5.9v27.3h5.9v-10.6h4.2
		V275.4z"/>
	<path class="st0" d="M148.2,248.2l-5.3,27.3h5.8l0.9-5.4c0.7-0.2,1.7-0.5,2.7-0.5c1,0,2,0.2,2.7,0.4l0.9,5.4h5.9l-5.4-27.3H148.2z
		 M152.3,264.2L152.3,264.2L152.3,264.2L152.3,264.2c-0.7,0-1.3,0.1-1.8,0.2l0-0.2l1.7-10.8l1.7,10.8l0,0.2
		C153.5,264.3,152.9,264.2,152.3,264.2"/>
	<path class="st0" d="M227.9,248.2l-5.3,27.3h5.8l0.9-5.4c0.7-0.2,1.7-0.5,2.7-0.5c1,0,2,0.2,2.7,0.4l0.9,5.4h5.9l-5.4-27.3H227.9z
		 M232,264.2L232,264.2L232,264.2L232,264.2c-0.7,0-1.3,0.1-1.8,0.2l0-0.2l1.7-10.8l1.7,10.8l0,0.2
		C233.1,264.3,232.6,264.2,232,264.2"/>
</g>
</svg>
