<?xml version="1.0" encoding="utf-8"?>
<!-- Generator: Adobe Illustrator 21.0.0, SVG Export Plug-In . SVG Version: 6.00 Build 0)  -->
<svg version="1.1" id="Layer_1" xmlns="http://www.w3.org/2000/svg" xmlns:xlink="http://www.w3.org/1999/xlink" x="0px" y="0px"
	 viewBox="0 0 400 400" style="enable-background:new 0 0 400 400;" xml:space="preserve">
<style type="text/css">
	.st0{fill:#FFFFFF;}
</style>
<g>
	<path class="st0" d="M228.2,200.8c-18.3-9.9-39.8-14.3-61.1-13.1c-15.5,0.9-31,4.7-44.9,11.6c-5.7,2.6-11,5.7-16.2,9.1V12.6
		c-4.4,1-8.8,2-13.1,3.1C76.5,19.9,60.6,25.1,45,31.1v133.4c0,32.9,6.3,64.4,17.6,93.3c10.4,26.5,25.2,50.9,43.4,72.2
		c0,0,0.1,0.1,0.1,0.1l1.6-1.1c-3.4-24.9,3.1-51.2,19.1-71.3c10.4-13.7,24.4-24.1,40.3-30.8v127.3V382v0.3c2.1,1.2,4.2,2.4,6.4,3.4
		c7.2,4.1,14.7,8,22.3,11.4c0.6,0.3,1.2,0.5,1.8,0.8c0.6-0.3,1.2-0.5,1.8-0.8c0.7-0.3,1.3-0.6,2-0.9c9.2-4.2,18.1-9,26.7-14.2v-27.1
		V219.1c9.5,1.4,18.8,3.9,28,7.2l1.1-1.4C249.3,214.9,239.3,206.8,228.2,200.8"/>
	<path class="st0" d="M302.3,15.7c-4.4-1.1-8.7-2.2-13.1-3.1v95.1c-19.3-7.7-40.4-10.8-61.1-9.4V3.7c-10.1-0.7-20.3-1.1-30.5-1.1
		c-10.3,0-20.4,0.4-30.5,1.1v113.8c-12.4,7.8-23.2,17.8-31.7,30.2l1.1,1.6c9.9-4.6,20.2-8.1,30.6-10.3c20.5-4.5,41.5-4.4,61,0.3
		c23.4,5.7,44.8,18,61.1,37v142.4v8.2l1.8,0.9c37-44.2,59.2-101.1,59.2-163.3v-10.9V31.1C334.7,25.1,318.7,19.9,302.3,15.7"/>
</g>
</svg>
