<?xml version="1.0" encoding="utf-8"?>
<!-- Generator: Adobe Illustrator 21.0.0, SVG Export Plug-In . SVG Version: 6.00 Build 0)  -->
<svg version="1.1" id="Layer_1" xmlns="http://www.w3.org/2000/svg" xmlns:xlink="http://www.w3.org/1999/xlink" x="0px" y="0px"
	 viewBox="0 0 100 100" style="enable-background:new 0 0 100 100;" xml:space="preserve">
<style type="text/css">
	.st0{clip-path:url(#SVGID_2_);fill:#FFFFFF;}
	.st1{clip-path:url(#SVGID_4_);fill:#FFFFFF;}
	.st2{fill:#FFFFFF;}
</style>
<g>
	<defs>
		<rect id="SVGID_3_" x="-910" y="-490.4" width="1920" height="1080"/>
	</defs>
	<clipPath id="SVGID_2_">
		<use xlink:href="#SVGID_3_"  style="overflow:visible;"/>
	</clipPath>
	<path class="st0" d="M260.2,154.3c-1.3-0.7-2.7-1-4.2-0.9c-1.1,0.1-2.1,0.3-3.1,0.8c-0.4,0.2-0.8,0.4-1.1,0.6v-13.5
		c-0.3,0.1-0.6,0.1-0.9,0.2c-1.1,0.3-2.2,0.6-3.3,1.1v9.2c0,2.3,0.4,4.4,1.2,6.4c0.7,1.8,1.7,3.5,3,5c0,0,0,0,0,0l0.1-0.1
		c-0.2-1.7,0.2-3.5,1.3-4.9c0.7-0.9,1.7-1.7,2.8-2.1v8.8v1.9v0c0.1,0.1,0.3,0.2,0.4,0.2c0.5,0.3,1,0.6,1.5,0.8l0.1,0.1l0.1-0.1
		c0,0,0.1,0,0.1-0.1c0.6-0.3,1.3-0.6,1.8-1v-1.9v-9.4c0.7,0.1,1.3,0.3,1.9,0.5l0.1-0.1C261.7,155.2,261,154.7,260.2,154.3"/>
	<path class="st0" d="M265.4,141.5c-0.3-0.1-0.6-0.1-0.9-0.2v6.6c-1.3-0.5-2.8-0.7-4.2-0.7v-6.5c-0.7,0-1.4-0.1-2.1-0.1
		c-0.7,0-1.4,0-2.1,0.1v7.9c-0.9,0.5-1.6,1.2-2.2,2.1l0.1,0.1c0.7-0.3,1.4-0.6,2.1-0.7c1.4-0.3,2.9-0.3,4.2,0
		c1.6,0.4,3.1,1.2,4.2,2.6v9.8v0.6l0.1,0.1c2.6-3.1,4.1-7,4.1-11.3V151v-8.5C267.6,142.1,266.5,141.8,265.4,141.5"/>
	<rect x="266.1" y="176.8" class="st0" width="1.1" height="5"/>
	<path class="st0" d="M249.3,182.4c0.2,0.1,0.5,0.2,0.8,0.2h1.8v-5.8h-1.1v4c0,0.4,0,0.6,0.4,0.7v0h-0.4h-0.6c-0.2,0-0.3,0-0.4-0.1
		c-0.1-0.1-0.1-0.2-0.1-0.4v-2.4h-1.1v2.6c0,0.3,0.1,0.6,0.2,0.8C248.9,182.1,249.1,182.3,249.3,182.4"/>
	<path class="st0" d="M258.7,181.3c0.4,0.7,1.3,1.2,2.1,1.2c0.8,0,1.4-0.3,1.8-0.7h1.8h1.1v-5h-1.1v3.2c0,0.4,0,0.6,0.4,0.7v0h-1.6
		c0.1-0.3,0.1-0.5,0.1-0.8c0-0.6-0.2-1.2-0.6-1.6c-0.5-0.5-1.1-0.8-1.9-0.8c-0.8,0-1.4,0.3-1.8,0.6v0.9c-0.3,0.3-0.5,0.7-0.5,1.3v0
		c0,0.1,0,0.2,0,0.3h-0.2h-0.9h-0.1c-0.1,0-0.2,0-0.3-0.1c-0.1-0.1-0.1-0.1-0.1-0.3c0-0.1,0-0.3,0-0.5v-3.1h-1.1v3.5
		c0,0.1,0,0.2-0.1,0.3c-0.1,0.1-0.2,0.1-0.3,0.1h-0.3l-0.7-3.1h-1.1l0.6,2.4c0.1,0.4,0.2,0.5,0.6,0.6v0h-2.1l0.2,1.1h2.8
		c0.5,0,0.8-0.1,1.1-0.4c0,0,0.1-0.1,0.1-0.1c0,0,0,0.1,0.1,0.1c0.1,0.1,0.2,0.2,0.3,0.3c0.1,0.1,0.2,0.1,0.4,0.1h0.1h0.2h1
		L258.7,181.3z M260.8,178.5c1,0,1.5,0.8,1.5,1.4c0,0.5-0.1,1.3-1,1.5c0.3-0.3,0.4-0.7,0.4-1.2c0-0.4-0.1-0.7-0.3-1
		c-0.3-0.4-0.7-0.6-1.2-0.6c0,0-0.1,0-0.1,0C260.2,178.6,260.4,178.5,260.8,178.5 M260,179.7c0.1,0,0.6,0,0.6,0.5
		c0,0.7-0.4,0.7-0.5,0.7c-0.1,0-0.6,0-0.6-0.5C259.4,179.8,259.8,179.7,260,179.7"/>
	<rect x="257.9" y="170.5" class="st0" width="1.1" height="5"/>
	<path class="st0" d="M252.5,174.5h-0.4v0c0.4-0.2,0.4-0.3,0.4-0.7v0v-3.3h-1.1v5h2.4l0.2-1L252.5,174.5L252.5,174.5z"/>
	<path class="st0" d="M260.6,174.5h-0.4v0c0.4-0.1,0.4-0.3,0.4-0.5v-3.4h-1.1v5h2.4l0.2-1L260.6,174.5L260.6,174.5z"/>
	<path class="st0" d="M267.2,174.5L267.2,174.5l-0.4,0v0c0.3-0.1,0.4-0.2,0.4-0.5v-3.5h-1.1v5h2.4l0.2-1H267.2z"/>
	<path class="st0" d="M256.2,175.5h1.1v-5h-1.1v2.1h-0.7v0H255v0c0.4-0.1,0.4-0.3,0.4-0.6v-1.4h-1.1v5h1.1v-2h0.8V175.5z"/>
	<path class="st0" d="M248.6,170.5l-1,5h1.1l0.2-1c0.1,0,0.3-0.1,0.5-0.1c0.2,0,0.4,0,0.5,0.1l0.2,1h1.1l-1-5H248.6z M249.3,173.4
		L249.3,173.4L249.3,173.4L249.3,173.4c-0.1,0-0.2,0-0.3,0l0,0l0.3-2l0.3,2l0,0C249.5,173.4,249.4,173.4,249.3,173.4"/>
	<path class="st0" d="M263.3,170.5l-1,5h1.1l0.2-1c0.1,0,0.3-0.1,0.5-0.1c0.2,0,0.4,0,0.5,0.1l0.2,1h1.1l-1-5H263.3z M264,173.4
		L264,173.4L264,173.4L264,173.4c-0.1,0-0.2,0-0.3,0l0,0l0.3-2l0.3,2l0,0C264.2,173.4,264.1,173.4,264,173.4"/>
</g>
<g>
	<defs>
		<rect id="SVGID_1_" x="-910" y="-489.4" width="1920" height="1080"/>
	</defs>
	<clipPath id="SVGID_4_">
		<use xlink:href="#SVGID_1_"  style="overflow:visible;"/>
	</clipPath>
	<path class="st1" d="M260.2,155.3c-1.3-0.7-2.7-1-4.2-0.9c-1.1,0.1-2.1,0.3-3.1,0.8c-0.4,0.2-0.8,0.4-1.1,0.6v-13.5
		c-0.3,0.1-0.6,0.1-0.9,0.2c-1.1,0.3-2.2,0.6-3.3,1.1v9.2c0,2.3,0.4,4.4,1.2,6.4c0.7,1.8,1.7,3.5,3,5c0,0,0,0,0,0l0.1-0.1
		c-0.2-1.7,0.2-3.5,1.3-4.9c0.7-0.9,1.7-1.7,2.8-2.1v8.8v1.9v0c0.1,0.1,0.3,0.2,0.4,0.2c0.5,0.3,1,0.6,1.5,0.8l0.1,0.1l0.1-0.1
		c0,0,0.1,0,0.1-0.1c0.6-0.3,1.3-0.6,1.8-1v-1.9v-9.4c0.7,0.1,1.3,0.3,1.9,0.5l0.1-0.1C261.7,156.2,261,155.7,260.2,155.3"/>
	<path class="st1" d="M265.4,142.5c-0.3-0.1-0.6-0.1-0.9-0.2v6.6c-1.3-0.5-2.8-0.7-4.2-0.7v-6.5c-0.7,0-1.4-0.1-2.1-0.1
		c-0.7,0-1.4,0-2.1,0.1v7.9c-0.9,0.5-1.6,1.2-2.2,2.1l0.1,0.1c0.7-0.3,1.4-0.6,2.1-0.7c1.4-0.3,2.9-0.3,4.2,0
		c1.6,0.4,3.1,1.2,4.2,2.6v9.8v0.6l0.1,0.1c2.6-3.1,4.1-7,4.1-11.3V152v-8.5C267.6,143.1,266.5,142.8,265.4,142.5"/>
	<rect x="266.1" y="177.8" class="st1" width="1.1" height="5"/>
	<path class="st1" d="M249.3,183.4c0.2,0.1,0.5,0.2,0.8,0.2h1.8v-5.8h-1.1v4c0,0.4,0,0.6,0.4,0.7v0h-0.4h-0.6c-0.2,0-0.3,0-0.4-0.1
		c-0.1-0.1-0.1-0.2-0.1-0.4v-2.4h-1.1v2.6c0,0.3,0.1,0.6,0.2,0.8C248.9,183.1,249.1,183.3,249.3,183.4"/>
	<path class="st1" d="M258.7,182.3c0.4,0.7,1.3,1.2,2.1,1.2c0.8,0,1.4-0.3,1.8-0.7h1.8h1.1v-5h-1.1v3.2c0,0.4,0,0.6,0.4,0.7v0h-1.6
		c0.1-0.3,0.1-0.5,0.1-0.8c0-0.6-0.2-1.2-0.6-1.6c-0.5-0.5-1.1-0.8-1.9-0.8c-0.8,0-1.4,0.3-1.8,0.6v0.9c-0.3,0.3-0.5,0.7-0.5,1.3v0
		c0,0.1,0,0.2,0,0.3h-0.2h-0.9h-0.1c-0.1,0-0.2,0-0.3-0.1c-0.1-0.1-0.1-0.1-0.1-0.3c0-0.1,0-0.3,0-0.5v-3.1h-1.1v3.5
		c0,0.1,0,0.2-0.1,0.3c-0.1,0.1-0.2,0.1-0.3,0.1h-0.3l-0.7-3.1h-1.1l0.6,2.4c0.1,0.4,0.2,0.5,0.6,0.6v0h-2.1l0.2,1.1h2.8
		c0.5,0,0.8-0.1,1.1-0.4c0,0,0.1-0.1,0.1-0.1c0,0,0,0.1,0.1,0.1c0.1,0.1,0.2,0.2,0.3,0.3c0.1,0.1,0.2,0.1,0.4,0.1h0.1h0.2h1
		L258.7,182.3z M260.8,179.5c1,0,1.5,0.8,1.5,1.4c0,0.5-0.1,1.3-1,1.5c0.3-0.3,0.4-0.7,0.4-1.2c0-0.4-0.1-0.7-0.3-1
		c-0.3-0.4-0.7-0.6-1.2-0.6c0,0-0.1,0-0.1,0C260.2,179.6,260.4,179.5,260.8,179.5 M260,180.7c0.1,0,0.6,0,0.6,0.5
		c0,0.7-0.4,0.7-0.5,0.7c-0.1,0-0.6,0-0.6-0.5C259.4,180.8,259.8,180.7,260,180.7"/>
	<rect x="257.9" y="171.5" class="st1" width="1.1" height="5"/>
	<path class="st1" d="M252.5,175.5h-0.4v0c0.4-0.2,0.4-0.3,0.4-0.7v0v-3.3h-1.1v5h2.4l0.2-1L252.5,175.5L252.5,175.5z"/>
	<path class="st1" d="M260.6,175.5h-0.4v0c0.4-0.1,0.4-0.3,0.4-0.5v-3.4h-1.1v5h2.4l0.2-1L260.6,175.5L260.6,175.5z"/>
	<path class="st1" d="M267.2,175.5L267.2,175.5l-0.4,0v0c0.3-0.1,0.4-0.2,0.4-0.5v-3.5h-1.1v5h2.4l0.2-1H267.2z"/>
	<path class="st1" d="M256.2,176.5h1.1v-5h-1.1v2.1h-0.7v0H255v0c0.4-0.1,0.4-0.3,0.4-0.6v-1.4h-1.1v5h1.1v-2h0.8V176.5z"/>
	<path class="st1" d="M248.6,171.5l-1,5h1.1l0.2-1c0.1,0,0.3-0.1,0.5-0.1c0.2,0,0.4,0,0.5,0.1l0.2,1h1.1l-1-5H248.6z M249.3,174.4
		L249.3,174.4L249.3,174.4L249.3,174.4c-0.1,0-0.2,0-0.3,0l0,0l0.3-2l0.3,2l0,0C249.5,174.4,249.4,174.4,249.3,174.4"/>
	<path class="st1" d="M263.3,171.5l-1,5h1.1l0.2-1c0.1,0,0.3-0.1,0.5-0.1c0.2,0,0.4,0,0.5,0.1l0.2,1h1.1l-1-5H263.3z M264,174.4
		L264,174.4L264,174.4L264,174.4c-0.1,0-0.2,0-0.3,0l0,0l0.3-2l0.3,2l0,0C264.2,174.4,264.1,174.4,264,174.4"/>
</g>
<path class="st2" d="M55.4,32.6c-3-1.6-6.5-2.4-10-2.2c-2.6,0.1-5.1,0.8-7.4,1.9c-0.9,0.4-1.8,0.9-2.7,1.5V1.6
	c-0.7,0.2-1.4,0.3-2.2,0.5c-2.7,0.7-5.3,1.5-7.9,2.5v21.9c0,5.4,1,10.6,2.9,15.3c1.7,4.4,4.2,8.4,7.1,11.9c0,0,0,0,0,0l0.3-0.2
	c-0.6-4.1,0.5-8.4,3.1-11.7c1.7-2.3,4-4,6.6-5.1v21v4.6v0.1c0.3,0.2,0.7,0.4,1.1,0.6c1.2,0.7,2.4,1.3,3.7,1.9l0.3,0.1l0.3-0.1
	c0.1,0,0.2-0.1,0.3-0.1c1.5-0.7,3-1.5,4.4-2.3V58V35.6c1.6,0.2,3.1,0.6,4.6,1.2l0.2-0.2C58.8,34.9,57.2,33.6,55.4,32.6"/>
<path class="st2" d="M67.6,2.2c-0.7-0.2-1.4-0.4-2.2-0.5v15.6c-3.2-1.3-6.6-1.8-10-1.6V0.2C53.7,0.1,52,0,50.3,0
	c-1.7,0-3.4,0.1-5,0.2v18.7c-2,1.3-3.8,2.9-5.2,5l0.2,0.3c1.6-0.8,3.3-1.3,5-1.7c3.4-0.7,6.8-0.7,10,0.1c3.8,0.9,7.4,3,10,6.1V52
	v1.3l0.3,0.2c6.1-7.3,9.7-16.6,9.7-26.9v-1.8V4.7C72.9,3.7,70.3,2.8,67.6,2.2"/>
<rect x="69.4" y="86.2" class="st2" width="2.6" height="12"/>
<path class="st2" d="M29.3,99.6c0.5,0.3,1.2,0.4,1.9,0.4h4.2V86.2h-2.6v9.4c0,0.9,0,1.3,1,1.7v0.1h-1h-1.4c-0.4,0-0.7-0.1-0.9-0.3
	c-0.2-0.2-0.3-0.5-0.3-0.9v-5.6h-2.6v6.1c0,0.7,0.1,1.3,0.4,1.8C28.3,99,28.7,99.4,29.3,99.6"/>
<path class="st2" d="M51.7,97.1c1,1.8,3,2.8,5,2.8c2,0,3.4-0.7,4.3-1.7h4.2h2.6v-12h-2.6v7.6c0,0.9,0,1.3,1,1.7v0.1h-3.8
	c0.2-0.6,0.2-1.2,0.2-1.8c0-1.3-0.5-2.7-1.5-3.8c-1.1-1.3-2.7-2-4.5-2c-2,0-3.4,0.7-4.3,1.5v2.2c-0.8,0.7-1.2,1.8-1.2,3v0
	c0,0.3,0,0.6,0.1,0.8h-0.4h-2.2h-0.2c-0.3,0-0.5-0.1-0.7-0.2c-0.2-0.1-0.3-0.3-0.3-0.6c-0.1-0.3-0.1-0.7-0.1-1.3v-7.3h-2.6v8.4
	c0,0.3-0.1,0.6-0.3,0.7c-0.2,0.2-0.4,0.3-0.7,0.3h-0.7l-1.7-7.3h-2.6l1.3,5.7c0.2,0.8,0.4,1.2,1.4,1.5v0.1h-4.9l0.5,2.6h6.8
	c1.1,0,2-0.3,2.6-0.9c0.1-0.1,0.2-0.2,0.3-0.3c0,0.1,0.1,0.2,0.2,0.3c0.2,0.3,0.4,0.6,0.7,0.7c0.3,0.2,0.6,0.2,0.9,0.2h0.2H49h2.4
	L51.7,97.1z M56.6,90.4c2.4,0,3.5,2,3.5,3.3c0,1.2-0.3,3.1-2.4,3.6c0.6-0.8,0.9-1.8,0.9-2.8c0-0.8-0.3-1.7-0.8-2.4
	c-0.7-0.9-1.7-1.4-3-1.4c-0.1,0-0.1,0-0.2,0C55.2,90.5,55.8,90.4,56.6,90.4 M54.9,93.2c0.1,0,1.3,0,1.4,1.3C56.4,96,55.4,96,55,96
	c-0.2,0-1.4,0-1.5-1.2C53.5,93.4,54.3,93.2,54.9,93.2"/>
<rect x="49.8" y="71.2" class="st2" width="2.6" height="12"/>
<path class="st2" d="M36.9,80.7h-1v-0.1c1-0.4,1-0.7,1-1.7v0v-7.8h-2.6v12H40l0.5-2.4L36.9,80.7L36.9,80.7z"/>
<path class="st2" d="M56.3,80.7h-1v-0.1c0.8-0.3,1-0.6,1-1.3v-8.2h-2.6v12h5.6l0.5-2.4L56.3,80.7L56.3,80.7z"/>
<path class="st2" d="M71.9,80.7L71.9,80.7l-1,0v-0.1c0.7-0.3,0.9-0.6,1-1.1v-8.4h-2.6v12H75l0.5-2.4H71.9z"/>
<path class="st2" d="M45.8,83.2h2.6v-12h-2.6v4.9h-1.6v0H43V76c0.9-0.3,1-0.7,1-1.4v-3.4h-2.6v12H44v-4.7h1.9V83.2z"/>
<path class="st2" d="M27.6,71.2l-2.4,12h2.6l0.4-2.4c0.3-0.1,0.7-0.2,1.2-0.2c0.5,0,0.9,0.1,1.2,0.2l0.4,2.4h2.6l-2.4-12H27.6z
	 M29.4,78.2L29.4,78.2L29.4,78.2L29.4,78.2c-0.3,0-0.6,0-0.8,0.1l0-0.1l0.8-4.7l0.8,4.7l0,0.1C29.9,78.2,29.7,78.2,29.4,78.2"/>
<path class="st2" d="M62.6,71.2l-2.4,12h2.6l0.4-2.4c0.3-0.1,0.7-0.2,1.2-0.2c0.5,0,0.9,0.1,1.2,0.2l0.4,2.4h2.6l-2.4-12H62.6z
	 M64.4,78.2L64.4,78.2L64.4,78.2L64.4,78.2c-0.3,0-0.6,0-0.8,0.1l0-0.1l0.8-4.7l0.8,4.7l0,0.1C64.9,78.2,64.7,78.2,64.4,78.2"/>
</svg>
